<?xml version="1.0" standalone="no"?>
<!DOCTYPE svg PUBLIC "-//W3C//DTD SVG 20010904//EN"
 "http://www.w3.org/TR/2001/REC-SVG-20010904/DTD/svg10.dtd">
<svg version="1.0" xmlns="http://www.w3.org/2000/svg"
 width="260.000000pt" height="260.000000pt" viewBox="0 0 260.000000 260.000000"
 preserveAspectRatio="xMidYMid meet">
<metadata>
Created by potrace 1.11, written by Peter Selinger 2001-2013
</metadata>
<g transform="translate(0.000000,260.000000) scale(0.100000,-0.100000)"
fill="#000000" stroke="none">
<path d="M282 2198 c-9 -9 -12 -214 -12 -893 0 -842 1 -883 18 -898 16 -14 43
-17 169 -17 132 0 152 2 166 18 15 17 17 78 19 622 l3 603 275 -546 275 -547
104 2 103 3 279 550 279 550 0 -611 c0 -579 1 -612 18 -627 16 -14 43 -17 169
-17 133 0 152 2 166 18 16 17 17 93 17 894 0 838 -1 876 -18 892 -17 14 -46
16 -263 14 l-243 -3 -251 -522 c-137 -287 -252 -522 -255 -522 -3 0 -118 234
-255 522 l-251 522 -250 3 c-186 2 -253 -1 -262 -10z"/>
</g>
</svg>
